<?xml version="1.0" encoding="UTF-8"?>
<svg width="51px" height="51px" viewBox="0 0 51 51" version="1.1" xmlns="http://www.w3.org/2000/svg" xmlns:xlink="http://www.w3.org/1999/xlink">
    <!-- Generator: Sketch 54.1 (76490) - https://sketchapp.com -->
    <title>right-arrow-circular-button</title>
    <desc>Created with Sketch.</desc>
    <g id="Page-1" stroke="none" stroke-width="1" fill="none" fill-rule="evenodd">
        <g id="NTA_Home-Screen_v1.1" transform="translate(-871.000000, -500.000000)" fill="#000000" fill-rule="nonzero">
            <g id="right-arrow-circular-button" transform="translate(871.000000, 500.000000)">
                <path d="M25.5,51 C11.4391446,51 0,39.5608554 0,25.5 C0,11.4391446 11.4391446,0 25.5,0 C39.5608554,0 51,11.4391446 51,25.5 C51,39.5608554 39.5608554,51 25.5,51 Z M25.5,1.7293607 C12.3937517,1.7293607 1.7293607,12.3925988 1.7293607,25.5 C1.7293607,38.6062483 12.3937517,49.2706393 25.5,49.2706393 C38.6085541,49.2706393 49.2706393,38.6062483 49.2706393,25.5 C49.2706393,12.3925988 38.6085541,1.7293607 25.5,1.7293607 Z" id="Shape"></path>
                <path d="M22.8495269,34 C22.6319755,34 22.4144241,33.9187321 22.2489944,33.7550831 C21.9170019,33.4300116 21.9170019,32.9001005 22.2489944,32.5739157 L29.949408,24.9993042 L22.2489944,17.425806 C21.9181349,17.0996212 21.9181349,16.5697101 22.2489944,16.2446386 C22.5809869,15.9184538 23.1192,15.9184538 23.4511926,16.2446386 L31.7510056,24.4081639 C32.0829981,24.7343487 32.0829981,25.2631465 31.7510056,25.5893313 L23.4511926,33.7528566 C23.2846298,33.9187321 23.0670784,34 22.8495269,34 Z" id="Path"></path>
            </g>
        </g>
    </g>
</svg>