<?xml version="1.0" encoding="UTF-8"?>
<svg width="28px" height="28px" viewBox="0 0 28 28" version="1.1" xmlns="http://www.w3.org/2000/svg" xmlns:xlink="http://www.w3.org/1999/xlink">
    <!-- Generator: Sketch 54.1 (76490) - https://sketchapp.com -->
    <title>radio-on-button copy 2</title>
    <desc>Created with Sketch.</desc>
    <g id="Page-1" stroke="none" stroke-width="1" fill="none" fill-rule="evenodd">
        <g id="NTA_Home-Screen_v1.1" transform="translate(-486.000000, -639.000000)" fill="#FC4C79" fill-rule="nonzero">
            <g id="Group-4" transform="translate(13.000000, 270.000000)">
                <g id="radio-on-button-copy-2" transform="translate(473.000000, 369.000000)">
                    <path d="M14,7 C10.08,7 7,10.08 7,14 C7,17.92 10.08,21 14,21 C17.92,21 21,17.92 21,14 C21,10.08 17.92,7 14,7 Z M14,0 C6.3,0 0,6.3 0,14 C0,21.7 6.3,28 14,28 C21.7,28 28,21.7 28,14 C28,6.3 21.7,0 14,0 Z M14,25.2 C7.84,25.2 2.8,20.16 2.8,14 C2.8,7.84 7.84,2.8 14,2.8 C20.16,2.8 25.2,7.84 25.2,14 C25.2,20.16 20.16,25.2 14,25.2 Z" id="Shape"></path>
                </g>
            </g>
        </g>
    </g>
</svg>