<?xml version="1.0" encoding="UTF-8"?>
<svg width="9px" height="17px" viewBox="0 0 9 17" version="1.1" xmlns="http://www.w3.org/2000/svg" xmlns:xlink="http://www.w3.org/1999/xlink">
    <!-- Generator: Sketch 54.1 (76490) - https://sketchapp.com -->
    <title>sort-up-and-down-arrows-couple</title>
    <desc>Created with Sketch.</desc>
    <g id="Page-1" stroke="none" stroke-width="1" fill="none" fill-rule="evenodd">
        <g id="NTA_Home-Screen_v1.1" transform="translate(-1387.000000, -182.000000)" fill="#000000" fill-rule="nonzero">
            <g id="sort-up-and-down-arrows-couple" transform="translate(1387.000000, 182.000000)">
                <path d="M8.96813142,10.84407 C9.00275408,10.9033971 8.99960656,10.9753313 8.95986919,11.0331752 L4.91531299,16.9150881 C4.87951001,16.9666285 4.82049411,16.998146 4.75518318,17 C4.75360943,17 4.75203567,17 4.74928159,17 C4.68751162,17 4.6273154,16.9718196 4.59072555,16.9239871 L0.0378457429,11.0417035 C-0.00543258224,10.9860843 -0.0121210507,10.9104422 0.0217147308,10.8485195 C0.0551570729,10.7862261 0.122828636,10.7476634 0.196401789,10.7476634 L8.79501811,10.7476634 C8.86859127,10.7469219 8.93390219,10.7840013 8.96813142,10.84407 Z M0.196401789,6.25344893 L8.79501811,6.25344893 C8.79816563,6.25344893 8.80170658,6.25344893 8.80328034,6.25344893 C8.91147615,6.25344893 9,6.17002018 9,6.06805169 C9,6.01020775 8.97245925,5.95866732 8.92760717,5.92418343 L4.40030092,0.0760128687 C4.3621373,0.0266972027 4.2960395,0.000741588963 4.23584328,0 C4.17092579,0.00185397241 4.1119099,0.0333715034 4.07610692,0.0849119363 L0.0315507138,5.96756639 C-0.00818665748,6.02392715 -0.00976041476,6.09734446 0.0232884881,6.15741316 C0.0583045875,6.21636949 0.124402393,6.25344893 0.196401789,6.25344893 Z" id="Shape"></path>
            </g>
        </g>
    </g>
</svg>