<!-- Generator: Adobe Illustrator 22.0.0, SVG Export Plug-In  -->
<svg version="1.1"
	 xmlns="http://www.w3.org/2000/svg" xmlns:xlink="http://www.w3.org/1999/xlink" xmlns:a="http://ns.adobe.com/AdobeSVGViewerExtensions/3.0/"
	 x="0px" y="0px" width="47px" height="47px" viewBox="0 0 47 47" style="enable-background:new 0 0 47 47;" xml:space="preserve">
<style type="text/css">
	.st0{fill:#7C0BFF;}
</style>
<defs>
</defs>
<path class="st0" d="M43.8,11.7c-2.1-3.6-5-6.5-8.6-8.6C31.7,1.1,27.8,0,23.5,0s-8.2,1.1-11.8,3.2c-3.6,2.1-6.5,5-8.6,8.6
	C1.1,15.3,0,19.2,0,23.5s1.1,8.2,3.2,11.8c2.1,3.6,5,6.5,8.6,8.6c3.6,2.1,7.5,3.2,11.8,3.2s8.2-1.1,11.8-3.2c3.6-2.1,6.5-5,8.6-8.6
	c2.1-3.6,3.2-7.5,3.2-11.8S45.9,15.3,43.8,11.7z"/>
</svg>
