<svg xmlns="http://www.w3.org/2000/svg" width="63" height="63" viewBox="0 0 63 63"><defs><style>.a{fill:#8a0bf9;}.b{fill:#e4eaf8;}.c{fill:#ff5050;}.d{fill:#707487;}.e{fill:#7f8499;}.f{fill:#fff;}.g{fill:#ffdc64;}.h{fill:#7df5a5;}.i{fill:#d5dced;}.j{fill:#464655;}</style></defs><path class="a" d="M30.392,0A30.177,30.177,0,0,0,0,29.958,30.176,30.176,0,0,0,30.392,59.915,30.177,30.177,0,0,0,60.784,29.958,30.178,30.178,0,0,0,30.392,0Z"/><path class="b" d="M327.375,316.028H305.244a.485.485,0,0,1-.452-.514v-6.17a.485.485,0,0,1,.452-.514h22.131a.485.485,0,0,1,.452.514v6.17A.485.485,0,0,1,327.375,316.028Z" transform="translate(-267.451 -271.536)"/><path class="c" d="M310.207,316.028h-4.963a.485.485,0,0,1-.452-.514v-6.17a.485.485,0,0,1,.452-.514h4.963a.485.485,0,0,1,.452.514v6.17A.485.485,0,0,1,310.207,316.028Z" transform="translate(-267.451 -271.536)"/><path class="d" d="M371.9,326.889H364.22a.518.518,0,0,1,0-1.029H371.9a.519.519,0,0,1,0,1.029Z" transform="translate(-319.201 -286.509)"/><path class="e" d="M409.716,343.919H401.14a.518.518,0,0,1,0-1.029h8.576a.519.519,0,0,1,0,1.029Z" transform="translate(-351.598 -301.483)"/><path class="e" d="M366.93,343.919h-2.71a.518.518,0,0,1,0-1.029h2.71a.518.518,0,0,1,0,1.029Z" transform="translate(-319.201 -301.483)"/><path class="f" d="M317.406,320.949a.518.518,0,0,1,0-1.029.778.778,0,1,0-.677-.77.448.448,0,0,1-.2.444.462.462,0,0,1-.5,0,.448.448,0,0,1-.2-.444,1.594,1.594,0,1,1,1.582,1.8Z" transform="translate(-277.129 -279.027)"/><path class="f" d="M325.571,352.438a.518.518,0,0,1,0-1.028h0a.518.518,0,0,1,0,1.028Z" transform="translate(-285.29 -308.974)"/><path class="b" d="M327.375,392.657H305.244a.485.485,0,0,1-.452-.513v-6.17a.485.485,0,0,1,.452-.514h22.131a.485.485,0,0,1,.452.514v6.17A.485.485,0,0,1,327.375,392.657Z" transform="translate(-267.451 -338.912)"/><path class="g" d="M310.207,392.657h-4.963a.485.485,0,0,1-.452-.513v-6.17a.485.485,0,0,1,.452-.514h4.963a.485.485,0,0,1,.452.514v6.17A.485.485,0,0,1,310.207,392.657Z" transform="translate(-267.451 -338.912)"/><path class="d" d="M371.9,403.509H364.22a.518.518,0,0,1,0-1.029H371.9a.519.519,0,0,1,0,1.029Z" transform="translate(-319.201 -353.877)"/><path class="e" d="M366.93,420.509h-2.71a.518.518,0,0,1,0-1.029h2.71a.518.518,0,0,1,0,1.029Z" transform="translate(-319.201 -368.824)"/><path class="f" d="M317.406,397.579a.518.518,0,0,1,0-1.029.778.778,0,1,0-.677-.77.448.448,0,0,1-.2.444.462.462,0,0,1-.5,0,.448.448,0,0,1-.2-.444,1.594,1.594,0,1,1,1.582,1.8Z" transform="translate(-277.129 -346.403)"/><path class="f" d="M325.571,429.068a.518.518,0,0,1,0-1.028h0a.518.518,0,0,1,0,1.028Z" transform="translate(-285.29 -376.35)"/><path class="b" d="M327.375,469.288H305.244a.485.485,0,0,1-.452-.514V462.6a.485.485,0,0,1,.452-.514h22.131a.485.485,0,0,1,.452.514v6.17A.485.485,0,0,1,327.375,469.288Z" transform="translate(-267.451 -406.288)"/><path class="h" d="M310.207,469.288h-4.963a.485.485,0,0,1-.452-.514V462.6a.485.485,0,0,1,.452-.514h4.963a.485.485,0,0,1,.452.514v6.17A.485.485,0,0,1,310.207,469.288Z" transform="translate(-267.451 -406.288)"/><path class="d" d="M371.9,480.149H364.22a.518.518,0,0,1,0-1.029H371.9a.519.519,0,0,1,0,1.029Z" transform="translate(-319.201 -421.262)"/><path class="e" d="M366.93,497.179h-2.71a.518.518,0,0,1,0-1.029h2.71a.518.518,0,0,1,0,1.029Z" transform="translate(-319.201 -436.235)"/><path class="f" d="M317.406,474.209a.518.518,0,0,1,0-1.028.778.778,0,1,0-.677-.772.448.448,0,0,1-.2.444.462.462,0,0,1-.5,0,.448.448,0,0,1-.2-.444,1.594,1.594,0,1,1,1.582,1.8Z" transform="translate(-277.129 -413.78)"/><path class="f" d="M325.571,505.7a.518.518,0,0,1,0-1.028h0a.518.518,0,0,1,0,1.028Z" transform="translate(-285.29 -443.726)"/><path class="i" d="M472.968,462.09H470.71v3.05a1.217,1.217,0,0,0,1.129,1.286,1.03,1.03,0,0,0,.619-.211l.181-.135.78,2.146V462.6A.485.485,0,0,0,472.968,462.09Z" transform="translate(-413.044 -406.288)"/><path class="i" d="M472.638,424.157a1.061,1.061,0,0,0-.8-.377,1.217,1.217,0,0,0-1.131,1.286v1.285h2.259a.485.485,0,0,0,.451-.514v-.789Z" transform="translate(-413.044 -372.605)"/><path class="j" d="M478.08,432.554v6.391a.227.227,0,0,0,.35.215l1.093-.816,1.4,3.849a.427.427,0,0,0,.23.273.437.437,0,0,0,.36.006l.685-.324a.541.541,0,0,0,.245-.671l-1.4-3.849,1.284-.295a.272.272,0,0,0,.174-.187.267.267,0,0,0-.059-.247l-3.977-4.526A.223.223,0,0,0,478.08,432.554Z" transform="translate(-419.511 -380.092)"/><path class="e" d="M408.779,420.509H401.1a.485.485,0,0,1-.452-.514h0a.485.485,0,0,1,.452-.514h7.675a.485.485,0,0,1,.452.514h0A.485.485,0,0,1,408.779,420.509Z" transform="translate(-351.567 -368.824)"/><path class="e" d="M408.779,497.179H401.1a.485.485,0,0,1-.452-.514h0a.485.485,0,0,1,.452-.514h7.675a.485.485,0,0,1,.452.514h0A.485.485,0,0,1,408.779,497.179Z" transform="translate(-351.567 -436.235)"/></svg>