<!-- Generator: Adobe Illustrator 22.0.0, SVG Export Plug-In  -->
<svg version="1.1"
	 xmlns="http://www.w3.org/2000/svg" xmlns:xlink="http://www.w3.org/1999/xlink" xmlns:a="http://ns.adobe.com/AdobeSVGViewerExtensions/3.0/"
	 x="0px" y="0px" width="47px" height="47px" viewBox="0 0 47 47" style="enable-background:new 0 0 47 47;" xml:space="preserve">
<style type="text/css">
	.st0{fill:#0B80F1;}
	.st1{fill:#FFFFFF;}
</style>
<defs>
</defs>
<g>
	<path class="st0" d="M47,23.5C47,10.5,36.5,0,23.5,0S0,10.5,0,23.5S10.5,47,23.5,47S47,36.5,47,23.5z"/>
	<path class="st1" d="M29.9,34.1c-0.1-0.2-0.4-0.3-0.6-0.2c-2.3,1.1-5,2.3-5.5,2.4c0,0,0,0-0.1-0.1c-0.1-0.1-0.1-0.2-0.1-0.4
		c0-1.3,1-5.3,3-11.9c1.7-5.5,1.8-6.7,1.8-7.1c0-0.6-0.2-1.1-0.6-1.4c-0.4-0.3-1-0.5-1.7-0.5c-1.2,0-2.5,0.4-4.2,1.4
		c-1.6,0.9-3.3,2.4-5.2,4.5c-0.2,0.2-0.2,0.5,0,0.7c0.1,0.1,0.3,0.2,0.5,0.1c0.7-0.3,4-1.6,4.5-2c0.4-0.3,0.7-0.4,1-0.4h0
		c0,0,0,0.1,0,0.1c0,0.3-0.1,0.7-0.2,1c-2.9,9.3-4.2,14.9-4.2,17.3c0,0.9,0.2,1.5,0.7,2s1.1,0.8,1.9,0.8c0.8,0,1.9-0.4,3.1-1.1
		c1.2-0.7,3.1-2.2,5.7-4.7C30,34.5,30,34.3,29.9,34.1z"/>
	<path class="st1" d="M29.8,7.3c-0.5-0.5-1.1-0.7-1.8-0.7c-0.9,0-1.7,0.4-2.3,1c-0.6,0.7-1,1.6-0.9,2.5c0,0.8,0.2,1.4,0.7,1.9
		c0.5,0.5,1.1,0.8,1.8,0.7c0.8,0,1.6-0.4,2.3-1.1c0.6-0.7,1-1.6,1-2.5C30.5,8.3,30.2,7.7,29.8,7.3z"/>
</g>
</svg>
